<svg xmlns="http://www.w3.org/2000/svg" viewBox="0 0 120 120" width="120" height="120">
  <defs>
    <linearGradient id="gold" x1="0%" y1="0%" x2="100%" y2="100%">
      <stop offset="0%" stop-color="#D4B88E"/>
      <stop offset="100%" stop-color="#B8935A"/>
    </linearGradient>
  </defs>
  <rect width="120" height="120" rx="26" fill="#2D2A26"/>
  <path d="M60 24c-14 0-25 10-25 24v6h50v-6c0-14-11-24-25-24z" fill="url(#gold)"/>
  <path d="M64 18a12 12 0 1 0 0 16 9 9 0 1 1 0-16z" fill="#FAF6F0"/>
  <rect x="35" y="60" width="50" height="6" rx="2" fill="url(#gold)"/>
  <rect x="38" y="66" width="5" height="22" rx="2" fill="url(#gold)"/>
  <rect x="48" y="66" width="5" height="22" rx="2" fill="url(#gold)"/>
  <rect x="58" y="66" width="5" height="22" rx="2" fill="url(#gold)"/>
  <rect x="68" y="66" width="5" height="22" rx="2" fill="url(#gold)"/>
  <rect x="77" y="66" width="5" height="22" rx="2" fill="url(#gold)"/>
  <rect x="32" y="88" width="56" height="8" rx="3" fill="url(#gold)"/>
  <text x="60" y="108" font-family="Playfair Display, serif" font-size="13" font-weight="700" fill="#FAF6F0" text-anchor="middle" letter-spacing="2">DTIM</text>
</svg>
